<svg width="31" height="31" viewBox="0 0 31 31" fill="none"
    xmlns="http://www.w3.org/2000/svg">
    <path d="M22.6264 16.2175C22.6143 14.1528 23.5497 12.5968 25.4388 11.4494C24.3822 9.93574 22.7838 9.10322 20.6768 8.94277C18.6817 8.78535 16.499 10.1053 15.6998 10.1053C14.8552 10.1053 12.9237 8.99727 11.404 8.99727C8.26768 9.0457 4.93457 11.4979 4.93457 16.4869C4.93457 17.9612 5.204 19.484 5.74287 21.0521C6.46338 23.1168 9.06084 28.1755 11.7703 28.0937C13.1871 28.0604 14.1892 27.0887 16.0328 27.0887C17.822 27.0887 18.7483 28.0937 20.3286 28.0937C23.0623 28.0544 25.4115 23.4559 26.0957 21.3852C22.4296 19.6565 22.6264 16.3234 22.6264 16.2175ZM19.4446 6.98408C20.9795 5.16162 20.8402 3.50264 20.7948 2.90625C19.4386 2.98496 17.8704 3.82959 16.9773 4.86797C15.9935 5.98203 15.4152 7.35947 15.5394 8.9125C17.0046 9.02451 18.3427 8.2707 19.4446 6.98408Z" fill="black"/>
</svg>
