<svg width="31" height="31" viewBox="0 0 31 31" fill="none"
    xmlns="http://www.w3.org/2000/svg">
    <path d="M28.1654 12.9703H27.125V12.9167H15.5V18.0833H22.7998C21.7349 21.091 18.8732 23.25 15.5 23.25C11.22 23.25 7.74998 19.7799 7.74998 15.5C7.74998 11.2201 11.22 7.75 15.5 7.75C17.4756 7.75 19.2729 8.49529 20.6415 9.71269L24.2949 6.05921C21.988 3.90923 18.9022 2.58334 15.5 2.58334C8.36675 2.58334 2.58331 8.36677 2.58331 15.5C2.58331 22.6332 8.36675 28.4167 15.5 28.4167C22.6332 28.4167 28.4166 22.6332 28.4166 15.5C28.4166 14.6339 28.3275 13.7885 28.1654 12.9703Z" fill="#FFC107"/>
    <path d="M4.07263 9.48794L8.3164 12.6002C9.46469 9.75725 12.2457 7.75 15.5 7.75C17.4756 7.75 19.273 8.49529 20.6415 9.71269L24.295 6.05921C21.9881 3.90923 18.9023 2.58334 15.5 2.58334C10.5387 2.58334 6.23617 5.38431 4.07263 9.48794Z" fill="#FF3D00"/>
    <path d="M15.5 28.4166C18.8363 28.4166 21.8679 27.1398 24.16 25.0635L20.1622 21.6806C18.8218 22.7 17.184 23.2513 15.5 23.25C12.1404 23.25 9.28771 21.1078 8.21304 18.1182L4.00092 21.3635C6.13862 25.5466 10.4799 28.4166 15.5 28.4166Z" fill="#4CAF50"/>
    <path d="M28.1654 12.9703H27.125V12.9167H15.5V18.0833H22.7999C22.2904 19.5148 21.3728 20.7656 20.1603 21.6813L20.1623 21.68L24.16 25.0629C23.8771 25.3199 28.4167 21.9583 28.4167 15.5C28.4167 14.6339 28.3275 13.7885 28.1654 12.9703Z" fill="#1976D2"/>
</svg>
